<svg width="110" height="117" viewBox="0 0 110 117" fill="none" xmlns="http://www.w3.org/2000/svg">
<g clip-path="url(#clip0_941_780)">
<path d="M56.3269 6.07887L51.3367 1.08863C51.1712 0.92319 50.9469 0.830248 50.7129 0.830248C50.4789 0.830248 50.2545 0.92319 50.0891 1.08863L45.0989 6.07887C44.9751 6.20219 44.8908 6.35947 44.8565 6.53078C44.8222 6.70209 44.8396 6.87972 44.9064 7.04114C44.9732 7.20257 45.0865 7.34052 45.2318 7.4375C45.3771 7.53449 45.5479 7.58615 45.7226 7.58593L49.8309 7.58468L49.8296 36.6441H51.5962L51.5949 7.58468L55.7031 7.58593C55.8778 7.58615 56.0487 7.53449 56.194 7.4375C56.3393 7.34052 56.4525 7.20257 56.5194 7.04114C56.5862 6.87972 56.6035 6.70209 56.5693 6.53078C56.535 6.35947 56.4507 6.20219 56.3269 6.07887Z" fill="#1E88A8"/>
</g>
<path d="M104.102 20.2795C116.174 21.4873 103.485 44.2959 93.4244 57.3741L99.2965 97.3643H2.66813C-0.853105 83.0283 10.8373 68.2396 7.81922 57.3741C4.04657 43.7921 -1.99009 15.875 7.8188 15.875C15.6659 15.875 24.1672 42.5353 24.4187 53.6015C36.2397 54.6075 72.4401 52.6144 78.4763 45.3709C86.0216 36.3165 89.0114 18.7697 104.102 20.2795Z" fill="#1E88A8"/>
<path d="M42.2679 68.0982C42.2679 70.4429 41.5449 72.1325 40.5146 73.2236C39.4849 74.314 38.0453 74.9185 36.3839 74.9185C34.7057 74.9185 33.5706 74.6262 32.7982 74.2311C32.0444 73.8455 31.5646 73.3267 31.238 72.7315C30.5312 71.4437 30.5 69.7668 30.5 68.0982C30.5 65.1943 31.2597 63.1539 32.3197 61.8693C33.3627 60.6053 34.7795 59.9648 36.3839 59.9648C38.0827 59.9648 39.4776 60.5114 40.4725 61.6573C41.4919 62.8315 42.2679 64.8386 42.2679 68.0982Z" fill="white" stroke="white" stroke-width="3"/>
<path d="M64.6041 67.2456C64.6041 68.5656 64.6028 69.7159 64.5077 70.7372C64.4126 71.7585 64.232 72.5314 63.9404 73.1136C63.6682 73.6572 63.283 74.0697 62.6687 74.3705C62.0185 74.6889 61.0336 74.9185 59.5245 74.9185C57.8491 74.9185 55.7909 74.2207 54.1633 72.9338C52.5555 71.6627 51.5 69.9315 51.5 67.8959C51.5 63.1532 54.4554 59.9648 57.3839 59.9648C60.7467 59.9648 64.6041 62.9741 64.6041 67.2456Z" fill="white" stroke="white" stroke-width="3"/>
<ellipse cx="35.9857" cy="64.5667" rx="3.98566" ry="5.10186" fill="#1E88A8"/>
<ellipse cx="56.9857" cy="64.5667" rx="3.98566" ry="5.10186" fill="#1E88A8"/>
<path d="M1.426 112.465V102.312H4.4485C4.96517 102.312 5.4405 102.359 5.8745 102.452C6.3085 102.535 6.6805 102.674 6.9905 102.87C7.31083 103.067 7.55883 103.325 7.7345 103.645C7.91017 103.955 7.998 104.338 7.998 104.792C7.998 105.288 7.85333 105.743 7.564 106.156C7.27467 106.57 6.83033 106.854 6.231 107.009V107.071C6.975 107.185 7.54333 107.443 7.936 107.846C8.339 108.249 8.5405 108.797 8.5405 109.489C8.5405 109.995 8.4475 110.434 8.2615 110.806C8.0755 111.178 7.812 111.488 7.471 111.736C7.13 111.984 6.72183 112.17 6.2465 112.294C5.7815 112.408 5.26483 112.465 4.6965 112.465H1.426ZM2.976 106.528H4.2625C5.04783 106.528 5.611 106.399 5.952 106.141C6.30333 105.883 6.479 105.49 6.479 104.963C6.479 104.457 6.29817 104.1 5.9365 103.893C5.57483 103.687 5.03233 103.583 4.309 103.583H2.976V106.528ZM2.976 111.194H4.5105C5.3165 111.194 5.9365 111.054 6.3705 110.775C6.8045 110.486 7.0215 110.026 7.0215 109.396C7.0215 108.807 6.80967 108.388 6.386 108.14C5.96233 107.892 5.33717 107.768 4.5105 107.768H2.976V111.194ZM13.0294 112.651C12.6678 112.651 12.3268 112.599 12.0064 112.496C11.6964 112.393 11.4278 112.248 11.2004 112.062C10.9731 111.866 10.7923 111.633 10.6579 111.364C10.5339 111.096 10.4719 110.796 10.4719 110.465C10.4719 110.042 10.5701 109.67 10.7664 109.349C10.9731 109.029 11.2883 108.755 11.7119 108.528C12.1459 108.301 12.6988 108.115 13.3704 107.97C14.0524 107.825 14.8688 107.717 15.8194 107.644C15.7988 107.179 15.6438 106.782 15.3544 106.451C15.0754 106.12 14.6001 105.955 13.9284 105.955C13.4634 105.955 13.0088 106.043 12.5644 106.218C12.1304 106.394 11.7274 106.59 11.3554 106.807L10.7819 105.769C10.9886 105.645 11.2211 105.521 11.4794 105.397C11.7378 105.263 12.0116 105.144 12.3009 105.04C12.6006 104.937 12.9054 104.854 13.2154 104.792C13.5358 104.73 13.8613 104.699 14.1919 104.699C15.2459 104.699 16.0364 104.984 16.5634 105.552C17.0904 106.12 17.3539 106.906 17.3539 107.908V112.465H16.0984L15.9744 111.488H15.9279C15.5249 111.798 15.0703 112.072 14.5639 112.31C14.0679 112.537 13.5564 112.651 13.0294 112.651ZM13.4634 111.426C13.8664 111.426 14.2591 111.339 14.6414 111.163C15.0341 110.987 15.4268 110.739 15.8194 110.419V108.621C15.0754 108.683 14.4554 108.766 13.9594 108.869C13.4634 108.962 13.0656 109.086 12.7659 109.241C12.4766 109.386 12.2699 109.551 12.1459 109.737C12.0219 109.923 11.9599 110.13 11.9599 110.357C11.9599 110.739 12.1046 111.013 12.3939 111.178C12.6936 111.344 13.0501 111.426 13.4634 111.426ZM23.9354 112.651C23.3464 112.651 22.7936 112.563 22.2769 112.387C21.7706 112.212 21.3314 111.953 20.9594 111.612C20.5874 111.271 20.2929 110.858 20.0759 110.372C19.8692 109.876 19.7659 109.313 19.7659 108.683C19.7659 108.053 19.8796 107.489 20.1069 106.993C20.3342 106.497 20.6442 106.079 21.0369 105.738C21.4296 105.397 21.8791 105.139 22.3854 104.963C22.9021 104.787 23.4497 104.699 24.0284 104.699C24.6484 104.699 25.1909 104.808 25.6559 105.025C26.1209 105.232 26.5084 105.485 26.8184 105.784L26.0744 106.761C25.7747 106.513 25.4647 106.322 25.1444 106.187C24.8241 106.043 24.4779 105.97 24.1059 105.97C23.7029 105.97 23.3309 106.038 22.9899 106.172C22.6489 106.296 22.3544 106.477 22.1064 106.714C21.8687 106.952 21.6827 107.241 21.5484 107.582C21.4141 107.913 21.3469 108.28 21.3469 108.683C21.3469 109.086 21.4089 109.458 21.5329 109.799C21.6672 110.13 21.8532 110.414 22.0909 110.651C22.3389 110.889 22.6282 111.075 22.9589 111.209C23.2896 111.333 23.6564 111.395 24.0594 111.395C24.5244 111.395 24.9377 111.308 25.2994 111.132C25.6714 110.956 26.0072 110.744 26.3069 110.496L26.9734 111.488C26.5394 111.86 26.0641 112.15 25.5474 112.356C25.0307 112.553 24.4934 112.651 23.9354 112.651ZM29.4008 112.465V101.475H30.9353V108.636H30.9973L34.7328 104.885H36.4533L33.4773 107.892L36.8253 112.465H35.1358L32.5318 108.838L30.9353 110.45V112.465H29.4008ZM52.5457 112.651C51.9877 112.651 51.5124 112.573 51.1197 112.418C50.7374 112.263 50.4274 112.046 50.1897 111.767C49.9624 111.488 49.7971 111.158 49.6937 110.775C49.5904 110.383 49.5387 109.949 49.5387 109.473V106.125H47.4617V104.963L49.6007 104.885L49.8022 102.483H51.0732V104.885H54.6537V106.125H51.0732V109.473C51.0732 110.124 51.2024 110.61 51.4607 110.93C51.7294 111.251 52.2099 111.411 52.9022 111.411C53.2329 111.411 53.5377 111.385 53.8167 111.333C54.0957 111.271 54.3696 111.189 54.6382 111.085L54.9482 112.217C54.6072 112.331 54.2456 112.429 53.8632 112.511C53.4809 112.604 53.0417 112.651 52.5457 112.651ZM60.4137 112.651C59.9177 112.651 59.4423 112.563 58.9877 112.387C58.533 112.212 58.13 111.953 57.7787 111.612C57.4273 111.271 57.1483 110.858 56.9417 110.372C56.735 109.876 56.6317 109.313 56.6317 108.683C56.6317 108.053 56.735 107.489 56.9417 106.993C57.1483 106.497 57.4273 106.079 57.7787 105.738C58.13 105.397 58.533 105.139 58.9877 104.963C59.4423 104.787 59.9177 104.699 60.4137 104.699C60.9097 104.699 61.385 104.787 61.8397 104.963C62.2943 105.139 62.6973 105.397 63.0487 105.738C63.4 106.079 63.679 106.497 63.8857 106.993C64.0923 107.489 64.1957 108.053 64.1957 108.683C64.1957 109.313 64.0923 109.876 63.8857 110.372C63.679 110.858 63.4 111.271 63.0487 111.612C62.6973 111.953 62.2943 112.212 61.8397 112.387C61.385 112.563 60.9097 112.651 60.4137 112.651ZM60.4137 111.395C61.0957 111.395 61.633 111.147 62.0257 110.651C62.4183 110.155 62.6147 109.499 62.6147 108.683C62.6147 107.867 62.4183 107.21 62.0257 106.714C61.633 106.218 61.0957 105.97 60.4137 105.97C59.7317 105.97 59.1943 106.218 58.8017 106.714C58.409 107.21 58.2127 107.867 58.2127 108.683C58.2127 109.499 58.409 110.155 58.8017 110.651C59.1943 111.147 59.7317 111.395 60.4137 111.395ZM78.2266 112.465V103.614H74.9561V102.312H83.0471V103.614H79.7766V112.465H78.2266ZM88.2955 112.651C87.7995 112.651 87.3242 112.563 86.8695 112.387C86.4148 112.212 86.0118 111.953 85.6605 111.612C85.3092 111.271 85.0302 110.858 84.8235 110.372C84.6168 109.876 84.5135 109.313 84.5135 108.683C84.5135 108.053 84.6168 107.489 84.8235 106.993C85.0302 106.497 85.3092 106.079 85.6605 105.738C86.0118 105.397 86.4148 105.139 86.8695 104.963C87.3242 104.787 87.7995 104.699 88.2955 104.699C88.7915 104.699 89.2668 104.787 89.7215 104.963C90.1762 105.139 90.5792 105.397 90.9305 105.738C91.2818 106.079 91.5608 106.497 91.7675 106.993C91.9742 107.489 92.0775 108.053 92.0775 108.683C92.0775 109.313 91.9742 109.876 91.7675 110.372C91.5608 110.858 91.2818 111.271 90.9305 111.612C90.5792 111.953 90.1762 112.212 89.7215 112.387C89.2668 112.563 88.7915 112.651 88.2955 112.651ZM88.2955 111.395C88.9775 111.395 89.5148 111.147 89.9075 110.651C90.3002 110.155 90.4965 109.499 90.4965 108.683C90.4965 107.867 90.3002 107.21 89.9075 106.714C89.5148 106.218 88.9775 105.97 88.2955 105.97C87.6135 105.97 87.0762 106.218 86.6835 106.714C86.2908 107.21 86.0945 107.867 86.0945 108.683C86.0945 109.499 86.2908 110.155 86.6835 110.651C87.0762 111.147 87.6135 111.395 88.2955 111.395ZM94.3035 115.565V104.885H95.559L95.683 105.815H95.7295C96.0705 105.485 96.4631 105.216 96.9075 105.009C97.3518 104.803 97.8013 104.699 98.256 104.699C98.752 104.699 99.1911 104.792 99.5735 104.978C99.9661 105.154 100.292 105.412 100.55 105.753C100.819 106.084 101.02 106.487 101.154 106.962C101.299 107.438 101.371 107.97 101.371 108.559C101.371 109.21 101.278 109.789 101.092 110.295C100.906 110.801 100.653 111.23 100.333 111.581C100.023 111.922 99.6613 112.186 99.248 112.372C98.8346 112.558 98.4058 112.651 97.9615 112.651C97.6101 112.651 97.2433 112.573 96.861 112.418C96.4786 112.253 96.1273 112.021 95.807 111.721H95.7605L95.838 113.085V115.565H94.3035ZM97.667 111.38C98.2766 111.38 98.783 111.142 99.186 110.667C99.589 110.181 99.7905 109.484 99.7905 108.574C99.7905 107.779 99.6355 107.148 99.3255 106.683C99.0155 106.218 98.5195 105.986 97.8375 105.986C97.5275 105.986 97.202 106.069 96.861 106.234C96.52 106.389 96.179 106.647 95.838 107.009V110.589C96.1583 110.879 96.4838 111.085 96.8145 111.209C97.1451 111.323 97.4293 111.38 97.667 111.38Z" fill="#1E88A8"/>
<defs>
<clipPath id="clip0_941_780">
<rect width="26.4648" height="26.4648" fill="white" transform="translate(50.7129 0.464844) rotate(45)"/>
</clipPath>
</defs>
</svg>
