<svg width="151" height="52" viewBox="0 0 151 52" fill="none" xmlns="http://www.w3.org/2000/svg">
<path d="M77.4176 37.6618C83.8785 37.6618 76.9103 49.9398 85.0278 49.1788C87.8182 45.8791 87.3138 40.4521 87.3138 34.8739C87.3138 29.2956 89.6445 21.9363 89.3909 16.8629C89.1372 11.7896 83.8103 19.146 81.0198 21.9363C78.2294 24.7266 81.2342 30.8959 78.4439 30.8959C75.6535 30.8959 72.5891 32.7359 71.076 27.5175C71.076 16.7607 59.4104 15.5442 62.9617 20.6175C66.5131 25.6908 59.9146 50.701 66.51 50.4473C73.1053 50.1936 66.4498 37.6618 77.4176 37.6618Z" fill="#F5F5F5"/>
<path d="M114.201 14.1523C113.693 11.8692 114.454 10.3475 110.649 10.3477C109.719 22.9464 107.859 48.1439 110.649 47.8902C113.44 47.6365 110.413 45.0064 115.041 45.0064C118.646 45.0064 122.913 46.6813 123.84 45.8609C129.009 41.2888 117.245 41.2949 123.84 38.7582C130.436 36.2215 128.406 29.1188 125.362 26.5822C123.008 24.62 116.23 31.1482 114.201 29.1188C114.201 25.3138 114.708 16.4355 114.201 14.1523Z" fill="#F5F5F5"/>
<path d="M27.2401 11.9058C27.7398 3.90846 26.9904 0.410537 24.4913 0.410156C18.2436 0.410156 22.4921 18.9035 24.4913 18.9035C26.4905 18.9035 26.7405 19.9031 27.2401 11.9058Z" fill="#F5F5F5"/>
<path d="M26.4617 20.2588C24.2058 19.5986 23.0437 21.9939 23.9795 22.4617C24.9153 22.9296 28.1581 21.0224 26.4617 20.2588Z" fill="#F5F5F5"/>
<path fill-rule="evenodd" clip-rule="evenodd" d="M54.4568 10.877C60.8328 11.5149 54.1309 23.5614 48.8176 30.4688L51.919 51.5898H0.884124C-0.0970393 47.5952 1.15799 43.5341 2.32871 39.7457C3.37704 36.3534 4.35777 33.1799 3.60471 30.4688C1.61216 23.2954 -1.57614 8.55078 3.60448 8.55078C7.74898 8.55078 12.239 22.6316 12.3718 28.4763C18.6151 29.0076 37.7346 27.9549 40.9227 24.1292C42.078 22.7428 43.0311 20.9794 43.9963 19.1936L43.9964 19.1936C46.3605 14.8195 48.7974 10.3108 54.4568 10.877ZM20.8937 37.9005C21.3511 37.416 21.7036 36.6343 21.7036 35.4854C21.7036 33.8254 21.3081 32.8791 20.8595 32.3624C20.6928 32.1704 20.4988 32.0147 20.2769 31.8961C20.7924 32.3872 21.1264 33.1732 21.1264 34.0591C21.1264 35.5473 20.1839 36.7537 19.0213 36.7537C17.8588 36.7537 16.9163 35.5473 16.9163 34.0591C16.9163 33.2858 17.1708 32.5886 17.5784 32.0972C17.444 32.2029 17.3185 32.3259 17.2027 32.4662C16.7211 33.0498 16.3389 34.0231 16.3389 35.4854C16.3389 36.3881 16.3642 37.1595 16.6762 37.7279C16.8104 37.9726 17.0036 38.1836 17.321 38.3459C17.6536 38.516 18.1824 38.6624 19.0212 38.6624C19.7916 38.6624 20.4368 38.3843 20.8937 37.9005ZM19.0212 39.8798C21.1751 39.8798 22.9211 38.2954 22.9211 35.4854C22.9211 31.8129 21.1751 30.3975 19.0212 30.3975C16.8674 30.3975 15.1214 32.1518 15.1214 35.4854C15.1214 37.1683 15.1214 39.8798 19.0212 39.8798ZM32.4572 35.0351C32.4572 35.7373 32.4562 36.3239 32.4082 36.8398C32.3601 37.3557 32.2718 37.7041 32.1517 37.9439C32.0474 38.1523 31.9096 38.3005 31.6733 38.4163C31.4079 38.5462 30.9582 38.6624 30.1996 38.6624C29.4179 38.6624 28.4224 38.3308 27.6319 37.7058C26.8575 37.0935 26.3867 36.2925 26.3867 35.3786C26.3867 34.1412 26.7842 33.1709 27.3377 32.5256C27.1019 32.9609 26.9638 33.4893 26.9638 34.0591C26.9638 35.5473 27.9062 36.7537 29.0688 36.7537C30.2314 36.7537 31.1739 35.5473 31.1739 34.0591C31.1739 33.1736 30.8402 32.3879 30.3251 31.8967C31.4726 32.4071 32.4572 33.5691 32.4572 35.0351ZM33.6747 35.0351C33.6747 37.7861 33.6747 39.8798 30.1996 39.8798C28.0458 39.8798 25.1693 38.1296 25.1693 35.3786C25.1693 32.6276 26.9153 30.3975 29.0691 30.3975C31.223 30.3975 33.6747 32.2841 33.6747 35.0351Z" fill="#F5F5F5"/>
<path fill-rule="evenodd" clip-rule="evenodd" d="M91.9488 26.5742C100.574 26.574 106.662 28.3496 106.154 38.4963C105.679 48.0055 102.53 47.9346 100.466 47.8882C100.327 47.8851 100.194 47.882 100.066 47.882C98.037 47.882 89.4121 46.1064 89.4121 36.2134C89.4121 33.4046 91.5893 33.3171 93.5328 33.2391C95.0998 33.1761 96.5149 33.1193 96.5149 31.6474C96.5149 30.4739 95.4269 30.0885 94.3008 29.6897C92.8952 29.1918 91.4304 28.6729 91.9488 26.5742ZM98.1102 38.6769C101.64 37.6846 104.528 43.2428 101.961 44.4342C98.7251 45.936 93.4861 40.4719 98.1102 38.6769Z" fill="#F5F5F5"/>
<path fill-rule="evenodd" clip-rule="evenodd" d="M138.456 29.1211C142.94 29.3082 149.105 31.1757 149.478 33.9784C149.512 34.2301 149.555 34.5135 149.601 34.8219C150.071 37.9471 150.927 43.641 146.676 45.0014C142.006 46.4959 134.533 44.8149 132.665 39.3966C130.796 33.9784 133.972 29.1211 138.456 29.1211ZM140.215 32.8541C142.935 35.0169 141.543 40.6234 136.545 37.8483C133.58 36.2022 136.259 30.2999 140.215 32.8541Z" fill="#F5F5F5"/>
</svg>
