<svg width="166" height="57" viewBox="0 0 166 57" fill="none" xmlns="http://www.w3.org/2000/svg">
<path d="M85.392 41.3665C92.5675 41.3665 84.8286 55.0026 93.8438 54.1574C96.9429 50.4927 96.3827 44.4655 96.3827 38.2703C96.3827 32.075 98.9712 23.9017 98.6895 18.2673C98.4078 12.6328 92.4917 20.8028 89.3926 23.9017C86.2935 27.0007 89.6307 33.8523 86.5317 33.8523C83.4327 33.8523 80.0294 35.8959 78.3489 30.1003C78.3489 18.1537 65.393 16.8026 69.3372 22.4371C73.2813 28.0716 65.953 55.848 73.2779 55.5662C80.6027 55.2845 73.211 41.3665 85.392 41.3665Z" fill="#1E88A8"/>
<path d="M126.243 15.2606C125.679 12.7249 126.525 11.035 122.299 11.0352C121.266 25.0274 119.2 53.0119 122.299 52.7301C125.397 52.4484 122.037 49.5273 127.176 49.5273C131.18 49.5273 135.918 51.3875 136.948 50.4763C142.689 45.3986 129.624 45.4053 136.948 42.5881C144.273 39.7708 142.02 31.8825 138.639 29.0653C136.024 26.8861 128.497 34.1363 126.243 31.8825C126.243 27.6567 126.806 17.7963 126.243 15.2606Z" fill="#1E88A8"/>
<path fill-rule="evenodd" clip-rule="evenodd" d="M101.526 29.0547C111.105 29.0545 117.867 31.0264 117.303 42.2954C116.775 52.8564 113.278 52.7777 110.985 52.7261C110.831 52.7226 110.683 52.7193 110.542 52.7193C108.288 52.7193 98.709 50.7472 98.709 39.76C98.709 36.6405 101.127 36.5434 103.285 36.4567C105.026 36.3868 106.597 36.3237 106.597 34.6889C106.597 33.3858 105.389 32.9577 104.138 32.5147C102.577 31.9618 100.951 31.3855 101.526 29.0547ZM108.369 42.496C112.29 41.394 115.497 47.5669 112.646 48.8901C109.052 50.558 103.234 44.4895 108.369 42.496Z" fill="#1E88A8"/>
<path fill-rule="evenodd" clip-rule="evenodd" d="M153.175 31.8848C158.154 32.0925 165.001 34.1666 165.416 37.2793C165.453 37.5589 165.501 37.8736 165.552 38.2161C166.074 41.687 167.025 48.0107 162.304 49.5215C157.117 51.1814 148.817 49.3144 146.743 43.2968C144.668 37.2793 148.195 31.8848 153.175 31.8848ZM155.128 36.0307C158.149 38.4326 156.603 44.6593 151.052 41.5772C147.76 39.7491 150.735 33.1939 155.128 36.0307Z" fill="#1E88A8"/>
<path d="M29.6644 12.7671C30.2193 3.88524 29.387 0.000422317 26.6115 0C19.6728 0 24.3912 20.5388 26.6115 20.5388C28.8318 20.5388 29.1095 21.649 29.6644 12.7671Z" fill="#1E88A8"/>
<path d="M28.7976 22.043C26.2922 21.3096 25.0016 23.9699 26.0409 24.4895C27.0802 25.0091 30.6816 22.891 28.7976 22.043Z" fill="#1E88A8"/>
<path fill-rule="evenodd" clip-rule="evenodd" d="M59.89 11.6246C66.9713 12.333 59.5281 25.7119 53.6271 33.3833L57.0715 56.8404H0.391904C-0.697782 52.404 0.69606 47.8937 1.99627 43.6863C3.16055 39.9188 4.24975 36.3942 3.4134 33.3833C1.20046 25.4164 -2.34048 9.04102 3.41315 9.04102C8.01605 9.04102 13.0027 24.6792 13.1502 31.1704C20.0841 31.7605 41.3183 30.5913 44.859 26.3425C46.1421 24.8028 47.2006 22.8443 48.2726 20.861L48.2726 20.8609C50.8982 16.0031 53.6047 10.9957 59.89 11.6246ZM22.6146 41.637C23.1227 41.0989 23.5141 40.2308 23.5141 38.9548C23.5141 37.1112 23.0749 36.0602 22.5767 35.4864C22.3915 35.2731 22.1761 35.1001 21.9296 34.9684C22.5022 35.5139 22.8731 36.3869 22.8731 37.3707C22.8731 39.0235 21.8264 40.3633 20.5352 40.3633C19.244 40.3633 18.1973 39.0235 18.1973 37.3707C18.1973 36.5119 18.48 35.7375 18.9327 35.1918C18.7834 35.3091 18.644 35.4458 18.5154 35.6017C17.9806 36.2498 17.556 37.3307 17.556 38.9548C17.556 39.9573 17.5841 40.814 17.9306 41.4453C18.0798 41.7171 18.2943 41.9514 18.6468 42.1317C19.0162 42.3206 19.6034 42.4831 20.5351 42.4831C21.3907 42.4831 22.1072 42.1743 22.6146 41.637ZM20.5351 43.8353C22.9271 43.8353 24.8663 42.0756 24.8663 38.9548C24.8663 34.876 22.9271 33.3041 20.5351 33.3041C18.143 33.3041 16.2039 35.2525 16.2039 38.9548C16.2039 40.8237 16.2039 43.8353 20.5351 43.8353ZM35.4572 38.4547C35.4572 39.2346 35.456 39.886 35.4027 40.459C35.3493 41.0319 35.2513 41.4189 35.1179 41.6852C35.002 41.9166 34.849 42.0813 34.5865 42.2098C34.2917 42.3541 33.7924 42.4831 32.9499 42.4831C32.0817 42.4831 30.9761 42.1149 30.0981 41.4207C29.238 40.7407 28.7153 39.8511 28.7153 38.8361C28.7153 37.4619 29.1567 36.3843 29.7714 35.6676C29.5096 36.151 29.3561 36.7379 29.3561 37.3707C29.3561 39.0235 30.4028 40.3633 31.694 40.3633C32.9852 40.3633 34.0319 39.0235 34.0319 37.3707C34.0319 36.3873 33.6613 35.5147 33.0892 34.9692C34.3636 35.536 35.4572 36.8265 35.4572 38.4547ZM36.8093 38.4547C36.8093 41.5099 36.8093 43.8353 32.9499 43.8353C30.5578 43.8353 27.3631 41.8914 27.3631 38.8361C27.3631 35.7809 29.3023 33.3041 31.6943 33.3041C34.0864 33.3041 36.8093 35.3994 36.8093 38.4547Z" fill="#1E88A8"/>
</svg>
