<svg width="803" height="240" viewBox="0 0 803 240" fill="none" xmlns="http://www.w3.org/2000/svg">
<path d="M37.9503 215.596L48.5216 203.543L50.4342 205.22L39.8629 217.273L37.9503 215.596ZM42.1003 219.236L52.8615 206.966L54.738 208.612L43.9768 220.882L42.1003 219.236ZM46.2541 223.454L57.5533 210.571L59.5381 212.311L48.2389 225.194L46.2541 223.454ZM39.5306 208.043L41.5246 205.77L53.4331 216.215L51.4392 218.488L39.5306 208.043ZM24.6852 206.771L27.8248 209.524L30.7683 206.168L27.6287 203.415L24.6852 206.771ZM21.4788 207.151L27.619 200.15L34.0063 205.752L27.8661 212.753L21.4788 207.151ZM32.5346 197.821L35.638 200.543L38.5815 197.187L35.4781 194.465L32.5346 197.821ZM29.3237 198.134L35.4639 191.133L41.8512 196.735L35.711 203.736L29.3237 198.134ZM34.1802 211.523L45.0047 199.181L46.9894 200.922L36.165 213.264L50.78 226.082L48.8494 228.284L34.523 215.718L33.9903 211.74L34.1802 211.523ZM30.9584 209.591L33.3127 208.144C35.4616 212.392 36.9547 217.532 37.2886 221.592C36.6701 221.496 35.0944 221.327 34.2815 221.38C34.0375 217.655 32.9003 213.274 30.9584 209.591ZM35.6586 206.052L36.4789 203.515C37.9824 203.621 39.9462 204.003 40.9978 204.478L40.2585 207.213C39.1348 206.675 37.266 206.185 35.6586 206.052ZM15.1695 204.299L20.7717 197.911L22.8647 199.747L17.2625 206.134L15.1695 204.299ZM17.4537 197.108L19.511 194.763L26.0427 200.491L23.9854 202.837L17.4537 197.108ZM22.9609 190.829L25.0499 188.447L31.5815 194.176L29.4926 196.558L22.9609 190.829ZM26.1523 191.777L31.881 185.245L33.9379 187.049L28.2092 193.581L26.1523 191.777ZM43.3351 186.672L45.4556 184.254L47.5126 186.058C53.5751 191.375 61.9055 199.639 63.1054 212.248C62.1482 212.174 60.4953 212.385 59.5964 212.682C58.6168 200.841 50.9132 193.318 45.3559 188.444L43.3351 186.672ZM50.7193 189.317C58.7057 194.407 67.1819 197.627 73.6637 195.842C73.6264 196.831 73.9089 198.547 74.2825 199.577C67.205 201.095 58.2551 197.395 49.3799 191.718L50.7193 189.317ZM37.0278 185.928L46.0799 175.607L48.5699 177.791L39.5178 188.112L37.0278 185.928ZM31.5654 180.946L34.2457 178.763C39.729 185.105 44.3812 191.739 46.3207 197.463C45.5078 197.516 43.7328 197.938 42.8294 198.167C41.1875 192.833 36.7696 186.659 31.5654 180.946ZM45.5735 176.185L45.9216 175.788L46.1932 175.26L48.1904 174.075C50.8368 177.609 53.7714 181.907 55.2263 184.907L52.8404 186.389C51.3671 183.629 48.5181 179.597 46.0787 176.628L45.5735 176.185Z" fill="#255359"/>
<path d="M74.2568 143.715L83.8223 135.042L85.918 137.354L78.8061 143.802L99.8596 167.023L97.406 169.247L74.2568 143.715ZM82.3644 136.364L84.8536 134.107L101.297 152.243C102.425 153.488 102.821 154.424 102.283 155.689C101.785 156.854 100.394 158.18 98.2252 160.146C97.5382 159.603 96.2476 158.894 95.3117 158.576C96.9441 157.161 98.2954 155.936 98.7254 155.481C99.1166 155.127 99.1299 154.855 98.743 154.429L82.3644 136.364ZM69.5017 142.973L73.263 143.191C72.1767 146.638 70.1759 150.72 68.2439 154.091C67.6536 153.655 66.4531 153.188 65.6494 152.945C67.3392 149.663 68.9266 145.697 69.5017 142.973ZM84.2517 174.176L82.0104 172.062L82.2522 169.899L87.6597 160.785C88.3045 161.496 89.3428 162.498 89.9654 162.97C85.1525 171.74 84.4726 173.134 84.2517 174.176ZM84.2517 174.176C83.5258 173.733 82.0574 173.186 81.2148 173.042C81.4936 172.206 81.6733 170.618 80.3837 169.196L65.6494 152.945L68.1386 150.688L84.7751 169.037C84.7751 169.037 83.4134 173.252 84.2517 174.176ZM53.8004 159.671L54.7633 156.66C57.9466 156.884 61.9659 157.386 64.2479 157.974L63.5429 161.269C61.1931 160.679 56.9804 159.963 53.8004 159.671ZM58.8395 167.801L66.3426 160.999L68.3738 163.239L60.8707 170.042L58.8395 167.801ZM80.0035 178.352C86.3962 181.044 91.6349 177.46 98.6757 171.077C102.41 167.691 107.476 162.774 110.845 159.201C110.969 160.124 111.742 161.691 112.277 162.567C109.131 165.743 104.747 169.912 100.836 173.459C92.5149 181.003 86.9538 184.231 78.9315 180.814L80.0035 178.352ZM73.514 170.695L74.154 170.114L74.5518 169.624L76.3189 168.929C82.0095 177.635 83.6041 185.325 82.0395 191.603C81.168 191.356 79.473 191.273 78.6205 191.334C80.1941 185.566 78.8376 178.567 73.9331 171.157L73.514 170.695ZM69.8158 178.907L67.978 176.88L68.6778 175.079L74.2252 170.05L76.1919 172.219L71.4624 176.507C70.5734 177.313 69.8423 178.365 69.8158 178.907ZM69.8158 178.907C69.0899 178.464 67.428 177.703 66.6277 177.392C67.0321 176.766 67.4076 176.037 67.3673 174.777C67.4669 172.743 66.3891 164.909 65.8538 161.96L65.7571 161.853L66.217 160.789L68.701 160.027C69.2576 163.928 70.2197 171.349 70.3273 175.398C70.3273 175.398 69.2032 178.231 69.8158 178.907Z" fill="#255359"/>
<path d="M98.8244 126.809L132.486 102.667L134.528 105.514L100.867 129.657L98.8244 126.809ZM109.992 110.589L113.034 108.407L138.743 144.253L135.701 146.435L109.992 110.589ZM122.764 127.656L125.92 126.868C126.882 136.28 124.47 147.165 120.088 154.974C119.089 154.569 117.313 154.07 116.231 153.961C120.842 146.636 123.506 136.102 122.764 127.656ZM125.355 125.915C133.068 129.421 143.766 130.254 152.36 127.989C152.067 129.144 151.97 130.986 152.05 132.169C143.187 133.977 132.192 132.648 123.625 128.692L125.355 125.915ZM111.09 132.957L111.753 129.764C114.705 130.009 118.718 130.498 120.935 131.035L120.372 134.451C118.156 133.914 114.137 133.252 111.09 132.957ZM108.364 125.697L111.575 124.162C114.294 130.836 114.893 137.436 113.419 143.041C112.588 142.869 110.785 142.744 109.747 142.78C111.394 137.582 110.803 131.568 108.364 125.697ZM129.907 119.579L130.626 116.464C134.667 116.579 140.353 116.93 143.395 117.466L142.783 120.977C139.763 120.307 134.098 119.822 129.907 119.579ZM126.852 112.437L129.996 110.891C132.507 116.533 133.338 122.139 132.527 126.855C131.645 126.779 129.81 126.855 128.856 127.008C129.997 122.586 129.127 117.421 126.852 112.437Z" fill="#255359"/>
<path d="M154.818 110.34L174.488 99.3919L176.029 102.16L156.359 113.108L154.818 110.34ZM160.559 101.212L163.537 99.5544L172.571 115.786L169.593 117.443L160.559 101.212ZM159.835 122.71C164.653 118.93 172.159 112.774 179.203 106.876L180.912 109.55C174.263 115.174 167.116 121.184 162.205 125.291L159.835 122.71ZM143.059 91.7801L164.659 79.7579L166.223 82.568L144.623 94.5902L143.059 91.7801ZM159.101 90.103L160.595 87.4584C164.531 89.0031 169.465 91.2557 172.012 92.9694L170.509 95.8938C167.939 94.1382 163.018 91.7131 159.101 90.103ZM167.498 79.3314L170.434 77.6974L184.58 103.114L181.644 104.748L167.498 79.3314ZM174.168 71.7734L177.23 70.0693L195.578 103.035C196.675 105.006 196.709 106.251 195.773 107.431C194.711 108.682 192.535 110.003 189.473 111.707C188.88 110.938 187.541 109.816 186.59 109.192C189.069 107.921 191.376 106.638 192.131 106.217C192.82 105.779 192.913 105.452 192.517 104.739L174.168 71.7734ZM152.893 104.71C152.351 104.132 151.073 102.921 150.252 102.334C150.811 101.858 151.02 100.753 151.215 99.3264C151.409 97.8996 151.676 92.7524 151.006 88.2912L154.744 87.8034C155.065 92.6238 154.743 97.9669 153.93 101.935L153.954 101.977C153.954 101.977 152.519 104.039 152.893 104.71ZM152.893 104.71L151.59 102.468L152.708 100.528L166.146 91.5101C166.925 92.1202 168.115 92.7767 168.842 93.1957C155.269 102.563 153.684 103.665 152.893 104.71Z" fill="#255359"/>
<path d="M208.569 99.0074L194.621 66.7059L198.72 64.9363L204.561 78.465L219.632 71.9575L213.791 58.4288L217.845 56.6782L231.792 88.9797L227.738 90.7303L221.173 75.527L206.102 82.0345L212.667 97.2378L208.569 99.0074Z" fill="#255359"/>
<path d="M240.621 85.4853L240.603 48.3421L245.331 46.7399L267.898 76.242L263.488 77.7363L251.307 61.0848C248.862 57.7576 246.584 54.475 244.183 50.9806L244.002 51.0422C244.22 55.2761 244.407 59.2673 244.443 63.411L244.895 84.0372L240.621 85.4853ZM243.08 73.2994L241.956 69.9808L257.321 64.7737L258.446 68.0924L243.08 73.2994Z" fill="#255359"/>
<path d="M277.826 73.4145L269.153 39.3164L273.479 38.2159L277.845 55.3813L277.938 55.3576L287.807 34.5713L292.691 33.3288L285.293 49.0291L302.993 67.0128L298.248 68.2198L283.505 53.0995L279.407 61.5217L282.153 72.314L277.826 73.4145Z" fill="#255359"/>
<path d="M326.18 63.4543C317.421 64.9127 310.194 58.9143 308.341 47.7874C306.489 36.6606 311.43 28.9281 320.189 27.4697C328.901 26.0191 336.089 31.7809 337.934 42.8604C339.786 53.9872 334.892 62.0038 326.18 63.4543ZM325.534 59.5718C331.737 58.539 334.926 52.2661 333.483 43.6014C332.04 34.9367 327.03 30.2722 320.828 31.3049C314.578 32.3455 311.397 38.3738 312.839 47.0385C314.282 55.7032 319.284 60.6124 325.534 59.5718Z" fill="#255359"/>
<path d="M413.429 37.5069L437.206 38.713L437.055 41.6852L413.278 40.4791L413.429 37.5069ZM412.102 45.6582L437.797 46.9615L437.641 50.0296L411.946 48.7262L412.102 45.6582ZM428.433 39.2292L431.692 39.3946L430.625 60.4395L427.365 60.2742L428.433 39.2292ZM418.598 38.8745L421.714 39.0326L421.271 47.7574C421.123 50.6816 419.654 56.9032 414.052 60.2717C413.607 59.5763 412.555 58.5136 411.765 57.9929C416.757 55.2663 418.022 50.2359 418.155 47.5993L418.598 38.8745ZM408.119 24.6935L421.59 25.3768L421.458 27.9654L407.988 27.2821L408.119 24.6935ZM430.218 25.8145L443.785 26.5026L443.654 29.0913L430.087 28.4031L430.218 25.8145ZM442.733 19.7687L446.28 19.9486L444.384 57.3405C444.274 59.4978 443.736 60.624 442.267 61.1742C440.797 61.7245 438.397 61.6508 434.754 61.466C434.659 60.5 434.265 58.7978 433.788 57.7643C436.42 57.994 439.009 58.1253 439.778 58.1162C440.545 58.1551 440.8 57.8797 440.836 57.1606L442.733 19.7687ZM408.744 18.0446L424.133 18.8252L423.313 34.9804L407.925 34.1999L408.064 31.4674L420.048 32.0753L420.588 21.433L408.603 20.8251L408.744 18.0446ZM444.459 19.8562L444.318 22.6366L431.662 21.9947L431.12 32.6849L443.775 33.3269L443.637 36.0594L427.529 35.2423L428.351 19.0392L444.459 19.8562ZM406.587 17.9352L410.135 18.1151L408 60.205L404.452 60.0251L406.587 17.9352Z" fill="#255359"/>
<path d="M464.496 23.5739L467.81 24.1257L465.855 35.868C464.625 43.2544 462.102 54.0262 456.516 60.6873C456.058 59.9298 454.819 58.6043 454.125 58.0994C459.355 51.8171 461.39 42.2291 462.541 35.3162L464.496 23.5739ZM481.343 23.216L483.656 26.2773C478.574 26.9884 471.188 26.9265 465.08 26.4935C465.017 25.7044 464.748 24.3945 464.496 23.5739C470.383 23.8727 477.343 23.8637 481.343 23.216ZM487.184 33.1421L503.141 35.7987L502.589 39.1131L486.633 36.4564L487.184 33.1421ZM489.463 24.13L492.975 25.2499C490.183 34.128 486.507 42.1775 481.837 47.1419C481.426 46.3923 480.226 44.83 479.508 44.1752C483.84 39.787 487.097 32.203 489.463 24.13ZM488.29 36.4404C488.379 49.0583 491.071 60.9419 498.167 67.1353C497.204 67.6563 495.776 68.927 495.003 69.7715C487.805 62.7338 485.388 50.3609 485.267 36.4724L488.29 36.4404ZM497.712 35.3814L500.497 37.3537C496.16 52.0083 489.217 63.3096 478.194 66.9729C477.776 65.9787 476.9 64.519 476.079 63.6037C486.952 60.5481 493.516 49.7677 497.712 35.3814ZM465.12 29.1765L482.071 31.9987L480.124 43.6937L463.173 40.8715L463.67 37.8885L477.353 40.1668L478.307 34.4377L464.623 32.1594L465.12 29.1765ZM463.325 56.0304L476.678 58.2534L476.189 61.189L462.837 58.9659L463.325 56.0304ZM463.639 45.3772L479.406 48.0024L476.82 63.5326L473.601 62.9965L475.69 50.4493L466.268 48.8805L464.037 62.28L460.912 61.7597L463.639 45.3772Z" fill="#255359"/>
<path d="M511.821 48.3326L554.039 60.44L552.954 64.2235L510.736 52.1161L511.821 48.3326Z" fill="#255359"/>
<path d="M594.758 57.4155L603.092 60.8762L601.895 63.7576L593.561 60.2969L594.758 57.4155ZM582.002 73.7398L598.049 80.4035L596.834 83.3293L580.787 76.6655L582.002 73.7398ZM571.664 58.5842L583.633 63.5544L582.418 66.4802L570.449 61.51L571.664 58.5842ZM567.953 67.6459L579.833 72.5793L578.6 75.5494L566.719 70.616L567.953 67.6459ZM585.109 78.1483C584.916 86.748 588.803 94.9107 596.538 100.565C595.552 100.936 594.087 101.835 593.276 102.537C585.433 96.2661 581.749 87.6158 582.11 77.7347L585.109 78.1483ZM558.573 75.9649C563.201 77.211 570.318 78.9711 577.284 80.7202L576.221 83.6569C569.661 82.1805 562.766 80.5125 557.798 79.3332L558.573 75.9649ZM586.728 51.8461L588.445 55.4698C584.022 55.6081 578.209 54.9615 573.423 54.2215C573.496 53.4201 573.424 52.091 573.32 51.216C577.992 51.8566 583.434 52.1417 586.728 51.8461ZM592.87 56.5796L595.929 57.8497L593.664 63.3023C592.008 67.292 588.971 71.852 582.795 73.0816C582.565 72.2585 581.828 70.6532 581.348 69.9338C586.951 68.8304 589.28 65.2239 590.624 61.9878L592.87 56.5796ZM597.34 80.109L598.005 80.3851L598.618 80.5358L600.363 82.0918C592.647 92.6611 582.692 95.2319 571.843 93.9489C571.882 92.9778 571.681 91.335 571.292 90.3939C581.086 91.9661 590.646 89.5952 597.101 80.6853L597.34 80.109ZM573.294 51.1533L576.026 53.5869L561.446 88.6962L558.255 87.3708L573.294 51.1533ZM602.135 60.4269L605.238 61.7155L600.544 73.0196C600.065 74.1722 600.051 74.582 600.672 74.8397C601.159 75.0422 603.11 75.8522 603.686 76.0915C604.262 76.3308 605.212 76.673 605.799 76.761C605.575 77.5514 605.14 78.7224 604.997 79.4425C604.392 79.399 603.505 79.0308 602.663 78.681C602.042 78.4233 599.826 77.5029 599.294 77.282C596.323 76.0487 596.207 74.7011 597.478 71.6424L602.135 60.4269Z" fill="#255359"/>
<path d="M622.594 75.3198L656.776 94.3451L655.188 97.1971L621.006 78.1718L622.594 75.3198ZM621.422 82.8529L651.242 99.4505L649.725 102.177L619.905 85.5791L621.422 82.8529ZM611.665 93.5729L647.525 113.532L645.984 116.3L610.124 96.341L611.665 93.5729ZM614.104 87.0198L651.599 107.889L650.035 110.699L612.54 89.8298L614.104 87.0198ZM637.099 85.4808L640.328 87.2783L633.092 100.28L629.862 98.4825L637.099 85.4808ZM630.922 73.5827L634.32 73.991C634.943 76.4251 635.215 79.4884 635.004 81.3485L631.363 81.0798C631.663 79.1592 631.414 76.054 630.922 73.5827ZM651.222 83.3986L653.933 86.2261C651.247 87.6972 648.085 89.2332 645.832 90.1219L643.643 87.6399C645.924 86.602 649.184 84.791 651.222 83.3986ZM629.723 98.24L632.994 100.061C626.413 109.417 620.302 113.487 603.91 107.605C604.079 106.71 604.029 104.924 603.838 103.884C619.116 109.696 624.084 106.199 629.723 98.24ZM626.451 109.054L629.16 107.541C633.734 112.943 639.318 120.775 641.711 125.458L638.726 127.367C636.463 122.647 631.015 114.671 626.451 109.054Z" fill="#255359"/>
<path d="M674.548 121.67L697.132 137.868L695.118 140.676L672.534 124.478L674.548 121.67ZM682.839 113.322L702.264 127.253L700.249 130.062L680.825 116.13L682.839 113.322ZM695.244 112.827L698.17 114.925L672.628 150.537L669.703 148.438L695.244 112.827ZM682.311 129.541L684.12 131.961C677.074 136.595 668.348 139.374 661.312 139.053C661.348 138.016 661.217 136.386 660.934 135.297C667.556 136.03 675.964 133.614 682.311 129.541ZM686.551 132.524C684.73 139.428 684.641 147.87 686.634 153.493C685.54 153.536 683.781 153.928 682.715 154.345C681.114 148.176 681.634 139.216 683.73 131.681L686.551 132.524ZM673.141 102.054L681.956 108.376L665.674 131.077L656.859 124.755L658.873 121.946L664.997 126.338L677.25 109.254L671.127 104.862L673.141 102.054ZM671.698 101.019L674.389 102.949L655.897 128.731L653.206 126.801L671.698 101.019Z" fill="#255359"/>
<path d="M732.342 151.231L746.601 164.16L744.376 166.613L730.117 153.685L732.342 151.231ZM737.409 147.143L739.553 149.995C733.985 153.563 727.853 156.038 722.682 156.597C722.674 155.748 722.313 153.931 721.999 153.063C726.909 152.72 732.541 150.44 737.409 147.143ZM732.65 164.469C726.595 173.363 722.493 182.602 724.243 189.891C723.184 189.773 721.463 190.027 720.427 190.383C718.873 182.236 723.261 172.608 730.08 162.658L732.65 164.469ZM735.947 172.123L736.384 175.5C732.787 175.608 728.425 175.346 725.312 174.921L725.03 171.944C728.14 172.301 732.902 172.408 735.947 172.123ZM706.091 177.968L708.038 175.392L709.969 175.264L719.779 178.522C719.134 179.233 718.312 180.496 717.974 181.227C708.694 178.384 707.244 177.912 706.091 177.968ZM723.326 135.735L726.314 137.084C725.778 139.319 724.758 142.087 723.988 143.722L720.764 142.419C721.634 140.745 722.654 137.977 723.326 135.735ZM713.747 136.51L727.579 149.051L725.323 151.541L711.49 138.999L713.747 136.51ZM712.561 148.393L718.642 153.906L716.417 156.36L710.337 150.847L712.561 148.393ZM717.646 153.004L720.1 155.228C720.1 155.228 719.358 156.046 718.968 156.405C708.012 167.918 704.213 171.536 702.228 171.939C700.985 172.237 700.123 171.974 699.169 171.239C698.29 170.636 697.01 169.475 695.794 168.244C696.404 167.5 697.09 166.243 697.279 165.249C698.462 166.516 699.568 167.583 700.066 168.035C700.564 168.486 700.877 168.641 701.513 168.439C702.859 168.17 706.726 164.548 717.195 153.502L717.646 153.004ZM716.391 141.24L718.845 143.464L712.783 150.149C707.431 156.052 700.504 162.406 690.743 164.311C690.767 163.426 690.459 161.98 690.173 161.009C699.26 159.205 705.655 153.081 710.362 147.889L716.391 141.24ZM740.629 165.03L741.125 168.913C735.805 167.135 729.107 163.589 723.435 160.196C723.809 159.498 724.224 158.255 724.455 157.428C729.881 160.662 736.427 163.876 740.629 165.03ZM706.091 177.968C706.394 177.206 706.582 175.497 706.542 174.684C707.462 174.741 708.98 174.497 710.463 172.861L724.455 157.428L727.016 159.749L711.25 177.138C711.25 177.138 707.026 176.937 706.091 177.968Z" fill="#255359"/>
<path d="M762.294 205.277L764.636 207.947L750.057 220.734L747.715 218.064L762.294 205.277ZM741.426 207.618L759.435 228.151L757.017 230.272L739.008 209.738L741.426 207.618ZM750.348 203.304L765.287 220.337L762.978 222.363L748.039 205.33L750.348 203.304ZM771.393 189.954L764.608 195.905L774.357 207.019L781.141 201.069L771.393 189.954ZM771.523 185.371L785.797 201.646L774.285 211.743L760.011 195.468L771.523 185.371ZM771.973 211.727L771.535 215.304C766.316 211.901 759.427 205.429 754.042 199.873C754.592 199.262 755.241 198.182 755.602 197.356C760.864 202.7 767.599 208.924 771.973 211.727ZM762.803 177.759L765.114 180.393L734.982 206.822L732.671 204.187L762.803 177.759ZM750.431 178.139L761.921 191.239L759.358 193.486L747.869 180.387L750.431 178.139ZM754.774 185.056L755.54 187.386C749.186 190.405 740.339 193.057 734.546 193.222C735.082 192.304 735.631 190.674 735.833 189.666C740.999 189.733 749.16 187.682 754.774 185.056ZM770.037 181.056L769.621 184.804C765.342 182.619 759.869 178.417 755.589 174.702C756.039 174.051 756.625 172.899 756.954 172.036C761.247 175.548 766.467 179.462 770.037 181.056ZM753.183 190.667C753.18 192.265 752.727 198.664 752.458 200.177L748.936 200.457C749.656 198.293 750.71 192.579 750.992 190.353L753.183 190.667Z" fill="#255359"/>
</svg>
