<svg width="279" height="271" viewBox="0 0 279 271" fill="none" xmlns="http://www.w3.org/2000/svg">
<path d="M259.253 0L256.66 2.34373L228.444 27.8551L180.611 71.1043L182.864 256.233L0.925781 214.205V91.6752L69.5589 17.4415L259.253 0Z" fill="#F2C185"/>
<path opacity="0.1" d="M259.253 0L256.66 2.34373L228.444 27.8551L180.611 71.1043L182.864 256.233L0.925781 214.205V91.6752L69.5589 17.4415L259.253 0Z" fill="black"/>
<path d="M278.793 117.592L273.553 243.252L85.7635 270.085L0.925781 214.185V93.4426L180.611 71.084L278.793 117.592Z" fill="#F2C185"/>
<path d="M278.526 117.592L273.282 243.252L85.496 270.085L0.658203 214.185V93.4426L180.343 71.084L278.526 117.592Z" fill="#F2C185"/>
<path opacity="0.1" d="M85.7674 141.312V271L0.929688 215.1V94.4375L85.7674 141.312Z" fill="black"/>
<path opacity="0.1" d="M256.646 2.31836L228.431 27.8297L92.424 42.012L68.1152 19.65L256.646 2.31836Z" fill="black"/>
<path opacity="0.1" d="M180.566 71.084L182.472 257.564L273.508 243.252L278.749 117.592L180.566 71.084Z" fill="black"/>
<path d="M278.786 117.592L242.087 114.46L153.932 73.5076L180.604 71.084L278.786 117.592Z" fill="#F2C185"/>
<path d="M69.5195 17.4415L93.8283 39.8002L256.83 22.8081L259.214 0L69.5195 17.4415Z" fill="#F2C185"/>
<path d="M278.502 118.297L276.334 161.989L275.457 179.643L272.307 243.064L84.5176 270.343V140.209L278.502 118.297Z" fill="#F2C185"/>
<path d="M0.925781 93.4399L37.114 88.9355L113.408 127.427L85.7636 140.394L0.925781 93.4399Z" fill="#F2C185"/>
<path opacity="0.05" d="M0.925781 93.4399L37.114 88.9355L113.408 127.427L85.7636 140.394L0.925781 93.4399Z" fill="black"/>
<path d="M237.923 155.559C248.792 156.647 237.367 177.182 228.31 188.957L233.597 224.961L151.237 236.612C148.067 223.705 153.954 198.739 151.237 188.957C147.84 176.728 142.405 151.594 151.237 151.594C158.302 151.594 165.956 175.597 166.182 185.56C176.825 186.466 209.417 184.671 214.852 178.15C221.645 169.998 224.337 154.2 237.923 155.559Z" fill="#1E88A8"/>
<path d="M182.667 197.511C182.667 199.591 182.026 201.073 181.129 202.023C180.233 202.972 178.977 203.502 177.519 203.502C176.025 203.502 175.028 203.242 174.359 202.9C173.708 202.567 173.298 202.122 173.017 201.611C172.402 200.49 172.371 199.021 172.371 197.511C172.371 194.922 173.048 193.121 173.975 191.998C174.885 190.896 176.118 190.338 177.519 190.338C179.015 190.338 180.226 190.818 181.087 191.81C181.973 192.831 182.667 194.598 182.667 197.511Z" fill="#A5DEE4" stroke="white" stroke-width="3"/>
<path d="M200.999 196.743C200.999 197.934 200.998 198.962 200.913 199.873C200.828 200.784 200.668 201.459 200.417 201.96C200.186 202.421 199.862 202.768 199.34 203.024C198.782 203.297 197.92 203.502 196.575 203.502C195.103 203.502 193.282 202.887 191.841 201.747C190.42 200.624 189.5 199.105 189.5 197.329C189.5 193.105 192.126 190.338 194.648 190.338C197.604 190.338 200.999 192.991 200.999 196.743Z" fill="#A5DEE4" stroke="white" stroke-width="3"/>
<ellipse cx="177.518" cy="195.076" rx="3.58841" ry="4.59335" fill="#1E88A8"/>
<ellipse cx="195.502" cy="195.431" rx="3.58841" ry="4.59335" fill="#1E88A8"/>
</svg>
